<svg width="28" height="28" viewBox="0 0 28 28" fill="none" xmlns="http://www.w3.org/2000/svg">
<path d="M21.5835 21.5833L23.3335 23.3333M14.0002 3.50001V2.33334V3.50001ZM14.0002 25.6667V24.5V25.6667ZM24.5002 14H25.6668H24.5002ZM2.3335 14H3.50016H2.3335ZM21.5835 6.41668L23.3335 4.66668L21.5835 6.41668ZM4.66683 23.3333L6.41683 21.5833L4.66683 23.3333ZM4.66683 4.66668L6.41683 6.41668L4.66683 4.66668Z" stroke="white" stroke-width="2" stroke-linecap="round"/>
<path d="M14.0002 18.6667C16.5775 18.6667 18.6668 16.5773 18.6668 14C18.6668 11.4227 16.5775 9.33334 14.0002 9.33334C11.4228 9.33334 9.3335 11.4227 9.3335 14C9.3335 16.5773 11.4228 18.6667 14.0002 18.6667Z" stroke="white" stroke-width="2" stroke-linecap="round"/>
</svg>
